# xmcd CD database file
#
# Track frame offsets:
#	150
#	23266
#	41903
#	60526
#	67489
#	89606
#	111423
#	135866
#	160441
#	164045
#	194994
#	216230
#	236938
#
# Disc length: 3441 seconds
#
# Revision: 0
# Processed by: cddbd v1.5.2PL0 Copyright (c) Steve Scherf et al.
# Submitted via: CDex 1.70beta2
#
DISCID=ce0d6f0d
DTITLE=Martin Herzberg - Liebe and Tasten
DYEAR=2017
DGENRE=Jazz
TTITLE0=Und Alles wird blau
TTITLE1=Komm, komm nach Hause
TTITLE2=Wir tanzen
TTITLE3=Intro zum Meer
TTITLE4=Augen zum Meer
TTITLE5=All the Pretty Doors
TTITLE6=Trust
TTITLE7=Driftwood
TTITLE8=Intro zum Rausch
TTITLE9=The Rush
TTITLE10=Gold
TTITLE11=In deinen Farben
TTITLE12=Wie gemalt
EXTD=YEAR: 2017
EXTT0=
EXTT1=
EXTT2=
EXTT3=
EXTT4=
EXTT5=
EXTT6=
EXTT7=
EXTT8=
EXTT9=
EXTT10=
EXTT11=
EXTT12=
PLAYORDER=
